<?xml version="1.0" encoding="iso-8859-1"?>
<!-- Generator: Adobe Illustrator 19.0.0, SVG Export Plug-In . SVG Version: 6.00 Build 0)  -->
<svg version="1.1" id="Layer_1" xmlns="http://www.w3.org/2000/svg" xmlns:xlink="http://www.w3.org/1999/xlink" x="0px" y="0px"
	 viewBox="0 0 392.598 392.598" style="enable-background:new 0 0 392.598 392.598;" xml:space="preserve">
<path style="fill:#FFC10D;" d="M275.556,68.331c4.396,9.051-2.521,16.097-9.568,16.097h-0.065H126.739
	c-5.301,0.711-13.77-6.206-10.214-14.675l6.206-16.614H56.792v317.673h278.949V53.075h-65.81L275.556,68.331z"/>
<rect x="78.642" y="74.861" style="fill:#FFFFFF;" width="235.313" height="274.101"/>
<g>
	<path style="fill:#194F82;" d="M93.188,228.719c0,6.012,4.848,10.925,10.925,10.925H288.42c6.012,0,10.925-4.848,10.925-10.925
		c0-6.012-4.848-10.925-10.925-10.925H104.113C98.101,217.794,93.188,222.707,93.188,228.719z"/>
	<path style="fill:#194F82;" d="M288.42,264.469H104.113c-6.012,0-10.925,4.848-10.925,10.925s4.848,10.925,10.925,10.925H288.42
		c6.012,0,10.925-4.848,10.925-10.925C299.281,269.382,294.432,264.469,288.42,264.469z"/>
	<path style="fill:#194F82;" d="M215.564,311.273H104.113c-6.012,0-10.925,4.848-10.925,10.925c0,6.012,4.848,10.925,10.925,10.925
		h111.451c6.012,0,10.925-4.849,10.925-10.925C226.424,316.121,221.576,311.273,215.564,311.273z"/>
	<path style="fill:#194F82;" d="M118.4,202.731c6.012,0,10.925-4.848,10.925-10.925v-20.945c0-6.012-4.848-10.925-10.925-10.925
		c-6.077,0-10.925,4.848-10.925,10.925v20.945C107.539,197.883,112.388,202.731,118.4,202.731z"/>
	<path style="fill:#194F82;" d="M170.311,202.731c6.012,0,10.925-4.848,10.925-10.925v-48.743c0-6.012-4.848-10.925-10.925-10.925
		c-6.012,0-10.925,4.848-10.925,10.925v48.743C159.45,197.883,164.299,202.731,170.311,202.731z"/>
	<path style="fill:#194F82;" d="M222.158,202.731c6.012,0,10.925-4.848,10.925-10.925v-61.802c0-6.012-4.848-10.925-10.925-10.925
		s-10.925,4.848-10.925,10.925v61.802C211.297,197.883,216.145,202.731,222.158,202.731z"/>
	<path style="fill:#194F82;" d="M263.143,113.519v78.352c0,6.012,4.849,10.925,10.925,10.925s10.925-4.848,10.925-10.925v-78.352
		c0-6.012-4.848-10.925-10.925-10.925S263.143,107.507,263.143,113.519z"/>
</g>
<polygon style="fill:#56ACE0;" points="142.448,62.578 250.149,62.578 235.087,21.786 157.511,21.786 "/>
<path style="fill:#194F82;" d="M346.667,31.289H261.85l-8.986-24.178C251.313,2.844,247.24,0,242.65,0h-92.703
	c-4.59,0-8.663,2.844-10.214,7.111l-8.986,24.178H45.931c-6.012,0-10.925,4.848-10.925,10.925v339.459
	c0,6.012,4.848,10.925,10.925,10.925h300.735c6.012,0,10.925-4.848,10.925-10.925V42.214
	C357.592,36.137,352.679,31.289,346.667,31.289z M335.806,370.747H56.792V53.075h65.81l-6.206,16.614
	c-3.556,8.469,4.848,15.386,10.214,14.675h139.119h0.065c7.046,0,13.964-7.046,9.568-16.097l-5.624-15.192h65.81v317.673H335.806z
	 M235.087,21.786l15.063,40.792H142.448l15.127-40.792H235.087z"/>
<g>
</g>
<g>
</g>
<g>
</g>
<g>
</g>
<g>
</g>
<g>
</g>
<g>
</g>
<g>
</g>
<g>
</g>
<g>
</g>
<g>
</g>
<g>
</g>
<g>
</g>
<g>
</g>
<g>
</g>
</svg>
