<?xml version="1.0" encoding="iso-8859-1"?>
<!-- Generator: Adobe Illustrator 19.0.0, SVG Export Plug-In . SVG Version: 6.00 Build 0)  -->
<svg version="1.1" id="Layer_1" xmlns="http://www.w3.org/2000/svg" xmlns:xlink="http://www.w3.org/1999/xlink" x="0px" y="0px"
	 viewBox="0 0 392.533 392.533" style="enable-background:new 0 0 392.533 392.533;" xml:space="preserve">
<circle style="fill:#FFFFFF;" cx="94.966" cy="196.202" r="73.697"/>
<g>
	<path style="fill:#FFC10D;" d="M94.966,144.873c-14.998,0-28.444,6.465-37.818,16.679h42.149c6.012,0,10.925,4.848,10.925,10.925
		c0,6.012-4.848,10.925-10.925,10.925H45.253c-1.099,4.073-1.681,8.339-1.681,12.8c0,4.396,0.646,8.727,1.681,12.8h35.749
		c6.012,0,10.925,4.848,10.925,10.925c0,6.012-4.848,10.925-10.925,10.925H57.147c9.438,10.279,22.885,16.679,37.818,16.679
		c28.251,0,51.329-23.014,51.329-51.329S123.216,144.873,94.966,144.873z"/>
	<path style="fill:#FFC10D;" d="M322.974,117.204c26.376,0,47.774-21.398,47.774-47.774s-21.398-47.774-47.774-47.774
		S275.2,43.055,275.2,69.43S296.663,117.204,322.974,117.204z"/>
</g>
<path style="fill:#56ACE0;" d="M370.747,322.909c0-26.376-21.398-47.774-47.774-47.774S275.2,296.533,275.2,322.909
	s21.398,47.774,47.774,47.774C349.349,370.683,370.747,349.285,370.747,322.909z"/>
<path style="fill:#194F82;" d="M322.974,253.414c-22.174,0-41.956,10.537-54.626,26.764l-85.592-47.58
	c4.655-11.184,7.24-23.402,7.24-36.267c0-12.865-2.651-25.083-7.24-36.267l85.592-47.58c12.735,16.226,32.453,26.764,54.626,26.764
	c38.335,0,69.56-31.224,69.56-69.56s-31.224-69.624-69.56-69.624s-69.56,31.224-69.56,69.56c0,8.339,1.552,16.356,4.267,23.79
	l-85.721,47.58c-17.261-23.984-45.253-39.628-77.059-39.628C42.602,101.236,0,143.838,0,196.202s42.602,94.966,94.966,94.966
	c31.741,0,59.798-15.709,77.059-39.628l85.657,47.58c-2.715,7.434-4.267,15.451-4.267,23.79c0,38.335,31.224,69.56,69.56,69.56
	s69.56-31.224,69.56-69.56S361.309,253.414,322.974,253.414z M322.974,21.721c26.376,0,47.774,21.398,47.774,47.774
	s-21.398,47.774-47.774,47.774S275.2,95.871,275.2,69.495S296.663,21.721,322.974,21.721z M94.966,270.028
	c-40.727,0-73.697-32.97-73.697-73.697s32.97-73.697,73.697-73.697s73.697,32.97,73.697,73.697
	C168.663,236.929,135.693,270.028,94.966,270.028z M275.265,322.909c0-26.376,21.398-47.774,47.774-47.774
	s47.774,21.398,47.774,47.774s-21.398,47.774-47.774,47.774S275.265,349.285,275.265,322.909z"/>
<g>
</g>
<g>
</g>
<g>
</g>
<g>
</g>
<g>
</g>
<g>
</g>
<g>
</g>
<g>
</g>
<g>
</g>
<g>
</g>
<g>
</g>
<g>
</g>
<g>
</g>
<g>
</g>
<g>
</g>
</svg>
